<svg xmlns="http://www.w3.org/2000/svg"  viewBox="0 0 40 40" width="40px" height="40px"><path fill="#b6dcfe" d="M4,36.5c-1.378,0-2.5-1.122-2.5-2.5V18c0-1.378,1.122-2.5,2.5-2.5h3.5v-2h25v2H36c1.378,0,2.5,1.122,2.5,2.5v16c0,1.378-1.122,2.5-2.5,2.5H4z"/><path fill="#4788c7" d="M32,14v1v1h1h3c1.103,0,2,0.897,2,2v16c0,1.103-0.897,2-2,2H4c-1.103,0-2-0.897-2-2V18c0-1.103,0.897-2,2-2h3h1v-1v-1H32 M33,13H7v2H4c-1.657,0-3,1.343-3,3v16c0,1.657,1.343,3,3,3h32c1.657,0,3-1.343,3-3V18c0-1.657-1.343-3-3-3h-3V13L33,13z"/><path fill="#fff" d="M8.5 4.591H31.5V16.409H8.5z"/><path fill="#4788c7" d="M31,5v11H9V5H31z M32,4H8v13h24V4L32,4z"/><path fill="#dff0fe" d="M11,25.5c-1.378,0-2.5-1.122-2.5-2.5v-7.5h23V23c0,1.378-1.122,2.5-2.5,2.5H11z"/><path fill="#4788c7" d="M31,16v7c0,1.103-0.897,2-2,2H11c-1.103,0-2-0.897-2-2v-7H31 M32,15H8v8c0,1.657,1.343,3,3,3h18c1.657,0,3-1.343,3-3V15L32,15z"/><path fill="#fff" d="M35 19A1 1 0 1 0 35 21A1 1 0 1 0 35 19Z"/><path fill="#4788c7" d="M33.446,33C34.304,33,35,32.328,35,31.5l0,0c0-0.828-0.696-1.5-1.554-1.5H7.554C6.696,30,6,30.672,6,31.5l0,0C6,32.328,6.696,33,7.554,33H33.446z"/><path fill="#98ccfd" d="M16.067 8.5L18.5 8.5 18.5 1.5 21.5 1.5 21.5 8.5 23.933 8.5 20 13.219z"/><path fill="#4788c7" d="M21,2v6v1h1h0.865L20,12.438L17.135,9H18h1V8V2H21 M22,1h-4v7h-3l5,6l5-6h-3V1L22,1z"/><path fill="#fff" d="M9.5 31.5H31.5V38.5H9.5z"/><path fill="#4788c7" d="M31,32v6H10v-6H31 M32,31H9v8h23V31L32,31z"/><path fill="#dff0fe" d="M10 32H31V34H10z"/><path fill="none" stroke="#4788c7" stroke-linecap="round" stroke-miterlimit="10" d="M13.5 34.5L27.5 34.5"/></svg>